<?xml version="1.0" standalone="no"?>
<!DOCTYPE svg PUBLIC "-//W3C//DTD SVG 20010904//EN"
 "http://www.w3.org/TR/2001/REC-SVG-20010904/DTD/svg10.dtd">
<svg version="1.0" xmlns="http://www.w3.org/2000/svg"
 width="1682.000000pt" height="850.000000pt" viewBox="0 0 1682.000000 850.000000"
 preserveAspectRatio="xMidYMid meet">

<g transform="translate(0.000000,850.000000) scale(0.100000,-0.100000)"
fill="#000000" stroke="none">
<path d="M14450 8464 c-58 -13 -125 -29 -150 -35 -71 -16 -174 -91 -202 -147
-20 -43 -22 -59 -20 -182 3 -199 -1 -227 -54 -304 -24 -37 -44 -74 -44 -83 0
-30 61 -123 110 -165 45 -40 49 -46 42 -73 -5 -19 -29 -46 -63 -73 -114 -92
-190 -165 -214 -206 -44 -75 -68 -196 -61 -311 3 -55 9 -212 12 -350 7 -275 2
-327 -49 -530 l-30 -120 -1 -370 -1 -370 -33 -95 c-51 -146 -62 -215 -62 -379
0 -166 -1 -164 79 -195 25 -10 57 -26 72 -37 15 -10 32 -19 38 -19 16 0 33
-39 26 -58 -4 -9 -11 -55 -16 -102 -6 -47 -14 -119 -19 -160 -18 -152 -39
-296 -46 -313 -3 -10 -77 -73 -163 -140 -180 -140 -268 -227 -310 -306 -32
-60 -71 -180 -91 -276 -28 -136 -198 -395 -401 -610 -107 -113 -120 -158 -70
-237 37 -57 113 -102 201 -118 97 -17 98 -17 175 -90 82 -78 124 -102 227
-130 106 -28 158 -30 168 -5 15 42 -6 78 -67 114 -87 51 -141 98 -164 142 -21
43 -39 162 -39 271 l0 66 80 89 c44 48 124 139 177 202 54 62 122 141 151 175
28 33 89 106 134 161 117 141 158 185 285 296 61 55 121 112 133 129 12 16 32
71 45 122 15 64 52 153 115 283 50 105 99 198 107 208 26 28 50 20 95 -35 24
-29 77 -88 119 -133 115 -120 224 -261 239 -304 10 -32 10 -49 -4 -102 -74
-299 -70 -276 -56 -363 24 -151 116 -398 225 -601 89 -167 120 -287 135 -530
10 -157 19 -181 74 -196 34 -10 66 -8 176 10 74 12 191 26 260 31 69 5 141 14
160 20 19 6 64 15 99 20 79 10 179 59 221 106 25 29 30 43 28 72 l-3 37 -180
1 c-167 0 -185 2 -250 26 -139 50 -266 155 -313 256 -50 110 -55 142 -63 447
-4 160 -12 340 -19 400 -6 61 -14 207 -19 325 -4 118 -11 224 -16 235 -4 11
-28 63 -53 115 -52 111 -78 184 -121 341 -67 245 -123 455 -128 474 -32 133
-78 237 -178 401 -76 124 -74 107 -32 298 25 111 39 146 57 146 5 0 34 -21 66
-47 31 -27 102 -79 158 -118 108 -76 146 -120 146 -171 0 -23 15 -55 50 -106
51 -74 61 -111 38 -147 -14 -24 -4 -51 20 -51 10 0 28 -11 41 -26 23 -26 43
-26 87 1 52 33 115 179 114 267 -1 61 -66 146 -175 229 -68 51 -345 343 -411
432 -29 40 -74 108 -99 152 l-45 80 0 193 c0 151 4 204 16 243 17 50 14 89
-15 229 -27 128 -90 239 -207 361 -102 107 -121 158 -90 234 10 24 23 36 43
41 90 20 164 47 172 62 5 9 12 40 16 67 4 28 18 75 30 105 37 89 69 193 67
220 -1 13 -13 45 -26 71 -21 39 -25 60 -24 131 0 66 -4 96 -21 133 -13 30 -21
68 -21 105 0 72 -19 98 -102 139 -77 39 -139 40 -288 5z"/>
<path d="M11430 8246 c-136 -31 -173 -48 -232 -110 -72 -75 -96 -143 -104
-294 -7 -126 -16 -161 -49 -192 -20 -19 -25 -33 -25 -71 0 -40 4 -51 31 -73
17 -14 41 -26 54 -26 13 0 27 -4 30 -10 12 -20 -18 -52 -108 -112 -51 -34
-113 -81 -139 -105 -76 -72 -107 -176 -138 -473 -17 -162 -30 -229 -60 -310
-44 -120 -53 -192 -47 -410 3 -107 11 -224 17 -260 6 -36 15 -99 20 -140 5
-41 14 -104 20 -140 13 -74 26 -170 40 -285 5 -44 12 -101 16 -126 5 -38 2
-54 -22 -100 -27 -49 -29 -62 -28 -154 0 -55 6 -152 12 -215 38 -368 51 -750
31 -879 -11 -74 -19 -94 -56 -146 -88 -123 -134 -245 -202 -538 -6 -26 -11
-112 -11 -191 0 -104 -6 -172 -20 -247 -27 -134 -83 -304 -120 -362 -33 -52
-60 -135 -60 -183 0 -46 40 -89 101 -109 53 -18 85 -17 221 6 85 14 240 4 373
-25 39 -8 118 -15 178 -16 106 0 108 0 119 26 18 40 1 57 -73 69 -216 37 -399
248 -399 461 0 64 6 88 53 206 30 73 77 192 105 263 48 122 87 216 143 345 13
30 49 105 80 165 62 120 108 247 134 371 10 43 21 95 25 114 4 19 17 82 29
139 20 98 33 131 51 131 17 0 234 -243 262 -293 9 -15 11 -71 9 -186 -2 -163
-3 -166 -38 -255 -30 -76 -37 -107 -41 -188 -4 -84 0 -115 28 -235 17 -76 36
-151 41 -167 5 -16 9 -43 9 -60 0 -17 7 -56 15 -86 34 -126 54 -382 55 -713 0
-38 5 -53 26 -74 24 -24 29 -25 91 -18 36 4 91 16 122 28 50 19 77 21 266 22
180 0 215 3 242 18 18 9 49 17 71 17 47 0 126 26 143 47 21 25 -2 47 -57 54
-61 8 -325 119 -402 169 -145 93 -198 233 -189 495 3 77 10 167 17 200 23 125
30 185 39 345 14 228 25 307 52 365 17 38 24 74 27 148 4 91 2 102 -24 160
-20 45 -30 86 -35 152 -16 201 -44 305 -131 484 -41 85 -43 104 -7 122 25 13
149 59 159 59 13 0 13 -49 -1 -89 -21 -60 19 -53 67 12 48 63 74 161 74 272 0
101 0 101 -108 245 -81 108 -165 253 -202 346 -22 56 -69 158 -105 228 -36 69
-65 138 -65 154 0 16 -9 71 -20 122 -13 59 -20 131 -20 197 0 90 3 111 25 156
70 150 71 210 5 417 -24 75 -33 90 -114 190 -68 84 -156 226 -156 252 0 27 18
32 134 38 l108 6 38 40 c42 45 80 136 80 192 0 20 9 51 20 67 27 41 25 62 -10
128 -32 61 -36 87 -19 135 15 44 -3 93 -60 157 -25 29 -54 65 -65 80 -37 53
-71 65 -186 64 -58 -1 -130 -7 -160 -13z m505 -2976 c68 -47 85 -74 85 -136 0
-36 10 -78 30 -130 17 -42 28 -84 25 -95 -11 -32 -64 -69 -101 -69 -28 0 -39
6 -60 38 -53 77 -124 208 -124 228 0 21 41 138 61 176 14 25 34 23 84 -12z"/>
<path d="M9063 7708 c-103 -17 -257 -126 -305 -215 -37 -67 -78 -214 -78 -277
0 -36 7 -63 25 -91 78 -130 96 -166 91 -183 -4 -10 -45 -52 -91 -92 -151 -129
-190 -178 -218 -272 -36 -121 -37 -132 -26 -383 26 -592 27 -593 85 -800 41
-141 47 -224 25 -347 -20 -119 -33 -293 -29 -383 6 -120 30 -179 118 -285 39
-46 73 -94 75 -105 2 -11 6 -83 9 -160 6 -142 17 -245 36 -345 30 -149 51
-329 44 -365 -3 -16 -21 -66 -39 -110 -58 -139 -68 -191 -67 -376 1 -91 6
-185 11 -210 6 -24 11 -98 11 -165 0 -131 -12 -182 -70 -305 -52 -111 -36
-250 33 -273 19 -7 48 -6 95 4 47 10 125 13 262 12 628 -8 619 -9 640 66 11
41 2 83 -20 97 -6 4 -33 1 -61 -6 -45 -12 -54 -11 -85 6 -19 10 -54 43 -77 72
-23 30 -70 86 -104 124 -50 56 -63 78 -69 114 -13 91 43 235 162 412 46 68 84
126 84 128 0 2 23 41 52 87 28 46 69 115 91 153 36 64 157 247 277 420 27 39
56 95 66 125 17 55 17 55 -9 130 -14 41 -42 127 -61 190 -19 63 -48 144 -64
180 -51 115 -190 330 -282 436 -19 23 -59 71 -89 108 l-54 66 2 468 c1 264 -3
524 -9 599 -10 123 -9 135 10 183 32 82 27 138 -23 244 -48 100 -116 208 -189
300 -53 65 -55 73 -33 116 22 42 39 48 136 46 105 -3 167 14 210 56 50 50 61
89 61 209 1 98 -1 111 -26 156 -21 36 -29 67 -33 123 -5 67 -10 79 -38 111
-18 20 -36 52 -40 70 -10 48 -49 96 -97 120 -35 18 -62 22 -162 23 -67 1 -140
-2 -163 -6z m371 -3909 c37 -44 43 -76 20 -118 -20 -38 -51 -52 -65 -29 -5 7
-9 47 -9 89 0 100 10 111 54 58z"/>
<path d="M6919 7026 c-85 -34 -118 -58 -197 -139 -83 -87 -122 -159 -122 -230
0 -63 20 -102 83 -159 46 -42 50 -49 40 -71 -6 -13 -44 -46 -84 -72 -126 -83
-184 -152 -222 -265 -19 -57 -50 -209 -76 -375 -11 -71 -23 -146 -27 -165 -4
-19 -10 -276 -15 -570 -5 -294 -11 -574 -14 -622 -5 -69 -3 -98 13 -150 32
-102 67 -180 110 -247 22 -34 52 -90 66 -124 106 -254 198 -486 203 -508 4
-20 -1 -31 -18 -43 -36 -26 -203 -123 -268 -155 -41 -21 -94 -68 -201 -177
-80 -82 -156 -165 -169 -185 -34 -51 -93 -84 -191 -109 -162 -42 -194 -76
-180 -195 6 -50 17 -75 63 -146 31 -48 66 -108 77 -135 22 -51 135 -188 178
-216 51 -33 155 -16 210 35 32 30 28 47 -24 97 -47 47 -111 134 -132 183 -7
15 -12 44 -12 65 0 31 8 44 55 88 69 65 235 178 345 235 47 24 106 56 132 71
66 38 438 213 499 235 60 22 65 17 74 -72 18 -195 8 -295 -54 -543 -52 -205
-54 -267 -11 -315 16 -19 53 -44 81 -57 57 -24 106 -24 254 1 100 17 200 17
290 0 39 -7 95 -15 125 -18 48 -4 58 -2 75 17 l20 22 -24 19 c-13 10 -33 19
-45 19 -70 0 -220 73 -282 137 -78 82 -84 103 -84 310 0 100 4 203 9 230 6 26
15 86 22 133 7 47 28 135 48 195 35 106 36 116 36 255 0 138 -1 148 -29 210
-40 93 -42 111 -13 146 50 60 61 94 62 184 0 142 -14 228 -50 300 -18 36 -38
83 -45 105 -29 90 -88 222 -198 443 -101 203 -116 240 -120 293 -5 73 11 154
54 276 90 251 85 362 -26 583 -54 107 -90 205 -90 245 0 52 21 62 146 67 81 4
122 11 157 26 53 24 129 97 158 153 25 50 25 116 -1 149 -11 14 -20 39 -20 55
0 17 -9 59 -20 93 -11 35 -20 89 -20 119 0 49 -3 58 -33 86 -19 18 -54 44 -78
59 -24 15 -70 49 -102 76 -71 61 -108 72 -233 72 -80 0 -110 -5 -155 -24z"/>
<path d="M4725 6675 c-22 -7 -73 -23 -114 -35 -71 -21 -79 -26 -202 -143 -215
-204 -581 -575 -616 -624 -82 -115 -172 -354 -223 -593 -31 -143 -35 -356 -17
-800 14 -341 16 -358 41 -425 15 -38 46 -101 69 -140 l42 -69 7 -171 c4 -93
12 -213 18 -265 7 -52 14 -141 17 -197 l5 -103 -32 -17 c-138 -75 -374 -281
-496 -434 -29 -36 -92 -99 -140 -140 -148 -125 -185 -162 -206 -202 -19 -38
-19 -41 -2 -104 31 -116 77 -166 302 -330 77 -57 90 -63 135 -63 27 0 66 4 86
9 20 5 63 15 96 21 109 21 130 32 130 65 0 27 -5 32 -47 45 -28 9 -68 35 -100
65 -30 28 -83 72 -119 100 -79 61 -88 73 -89 107 0 19 11 35 38 56 52 41 204
127 362 207 150 75 217 118 327 208 42 34 110 87 152 118 78 57 125 117 141
181 5 18 15 60 23 93 18 70 34 194 42 315 3 47 9 88 14 93 9 9 38 -29 86 -118
47 -86 149 -258 181 -305 20 -29 24 -47 24 -114 0 -84 10 -158 41 -301 11 -49
24 -110 29 -135 5 -25 14 -66 20 -92 5 -26 10 -94 10 -152 0 -82 -4 -114 -20
-151 -27 -63 -26 -123 3 -166 l23 -34 304 -3 c298 -3 442 7 457 30 11 19 -24
39 -78 47 -110 15 -249 112 -293 205 -10 21 -27 82 -38 135 -21 103 -21 92 -2
795 7 257 0 315 -49 408 -21 41 -28 66 -25 90 3 18 13 82 23 143 34 208 23
234 -386 876 -127 200 -129 207 -101 349 53 267 39 501 -42 729 -22 61 -20 78
13 112 47 47 111 38 198 -28 86 -66 228 -83 325 -40 63 28 143 106 159 154 7
21 8 52 4 77 -4 22 -10 66 -14 97 -5 48 -13 63 -54 109 -52 57 -52 60 -35 125
11 42 11 46 -14 72 -14 16 -38 54 -53 87 -34 72 -71 115 -134 155 -40 26 -57
31 -107 30 -32 0 -77 -7 -99 -14z"/>
<path d="M2462 5125 c-18 -8 -72 -52 -120 -98 -96 -92 -160 -135 -248 -171
-61 -25 -88 -32 -349 -86 -187 -39 -248 -60 -350 -121 -105 -62 -311 -242
-399 -350 -39 -46 -100 -115 -136 -154 -94 -98 -190 -229 -222 -301 -49 -108
-60 -172 -56 -321 l3 -135 63 -55 c35 -31 72 -74 84 -96 29 -57 85 -260 93
-338 8 -76 7 -79 -73 -189 -164 -223 -200 -271 -255 -333 -69 -79 -106 -160
-107 -231 0 -47 3 -52 58 -105 65 -63 147 -128 242 -191 36 -24 78 -54 93 -67
38 -31 117 -33 147 -3 40 40 26 75 -76 180 -71 74 -84 100 -84 173 0 70 16 90
112 138 100 50 378 240 418 285 16 19 37 57 47 85 20 58 50 84 84 74 46 -15
125 -103 160 -178 33 -70 34 -75 34 -202 0 -78 -6 -152 -14 -185 -17 -67 -9
-119 24 -157 23 -28 26 -28 177 -36 84 -4 200 -10 258 -13 116 -6 211 4 217
23 7 19 -40 56 -93 75 -86 30 -143 73 -166 125 -19 42 -20 59 -14 197 10 232
18 294 48 352 58 112 166 396 192 508 8 33 20 93 26 131 6 39 16 94 21 124 5
30 9 110 9 177 0 68 4 154 10 191 5 38 17 139 26 226 20 185 33 216 98 229 37
8 57 5 183 -23 35 -8 90 -9 168 -4 115 7 117 7 150 41 19 19 40 52 47 75 10
37 9 49 -10 103 -12 33 -22 77 -22 96 0 32 -8 48 -62 129 -22 33 -23 70 -1
115 19 40 23 30 -75 156 -72 92 -104 114 -192 134 -84 19 -125 20 -168 1z
m-578 -1615 c-3 -71 -25 -240 -34 -265 -5 -14 -16 -25 -23 -25 -7 0 -58 32
-113 71 -54 39 -112 78 -129 86 -38 19 -85 63 -85 79 0 7 22 14 53 17 129 14
189 27 239 50 73 35 93 32 92 -13z"/>
<path d="M4205 1081 c-101 -25 -189 -102 -224 -195 -63 -170 -66 -327 -6 -505
23 -69 86 -138 160 -172 129 -62 342 -24 440 77 l35 36 0 148 c0 126 -2 149
-16 154 -30 12 -239 7 -252 -6 -7 -7 -12 -27 -12 -45 0 -41 21 -53 94 -53 71
0 86 -15 86 -85 0 -104 -73 -150 -230 -144 l-91 4 -49 51 c-56 58 -77 117 -87
234 -13 173 43 326 139 376 37 19 142 18 184 -2 19 -9 52 -36 73 -60 26 -29
47 -44 63 -44 26 0 68 33 68 54 0 18 -51 87 -89 119 -61 51 -199 79 -286 58z"/>
<path d="M12500 1072 c-75 -25 -106 -47 -135 -97 -22 -36 -25 -54 -25 -136 0
-85 3 -99 24 -128 50 -67 102 -94 287 -145 42 -12 66 -26 93 -56 32 -36 36
-46 36 -94 0 -43 -5 -58 -25 -80 -34 -37 -65 -46 -153 -46 -88 0 -122 15 -167
74 -22 29 -34 36 -60 36 -37 0 -69 -25 -61 -47 3 -8 6 -19 6 -24 0 -18 84
-101 125 -122 35 -19 56 -22 160 -22 104 0 125 3 161 22 95 51 143 145 131
261 -11 106 -73 171 -197 208 -150 45 -185 59 -214 84 -28 26 -31 34 -31 89 0
52 4 64 27 87 21 21 39 28 82 32 83 7 120 -4 166 -48 34 -33 49 -40 80 -40 46
0 54 10 45 56 -8 47 -78 119 -130 133 -75 22 -166 23 -225 3z"/>
<path d="M8925 1071 c-37 -8 -45 -24 -90 -181 -20 -69 -47 -161 -60 -205 -13
-44 -46 -156 -73 -250 -70 -237 -70 -237 -5 -233 l47 3 23 85 c32 123 42 130
193 130 109 0 121 -2 144 -23 14 -13 31 -46 41 -82 30 -112 32 -115 80 -115
26 0 45 5 48 13 3 7 -5 46 -18 87 -13 41 -39 131 -59 200 -20 69 -50 172 -67
230 -17 58 -42 144 -55 193 -27 99 -49 147 -67 147 -6 0 -21 2 -32 4 -11 2
-33 1 -50 -3z m68 -206 c17 -37 77 -264 77 -294 0 -33 -29 -45 -99 -45 -86 1
-117 9 -124 33 -6 24 58 275 80 312 23 39 46 37 66 -6z"/>
<path d="M26 1054 c-14 -13 -16 -66 -16 -423 0 -303 3 -410 12 -419 7 -7 27
-12 45 -12 26 0 34 5 38 23 2 12 6 153 7 314 2 160 7 295 11 300 18 17 60 -60
188 -340 104 -226 137 -289 153 -293 12 -3 49 -4 81 -2 l60 3 3 420 c2 386 1
421 -15 433 -21 15 -65 16 -81 0 -9 -9 -12 -71 -12 -218 0 -261 -9 -422 -24
-417 -23 8 -83 128 -262 521 -35 78 -55 111 -72 117 -37 14 -99 11 -116 -7z"/>
<path d="M798 1059 c-17 -9 -18 -40 -18 -419 0 -224 3 -415 6 -424 5 -14 39
-16 275 -16 l269 0 6 25 c3 14 3 36 0 50 l-6 25 -199 0 c-168 0 -202 2 -215
16 -13 12 -16 39 -16 127 0 62 5 119 10 127 7 12 44 16 187 20 l178 5 3 33 c6
59 -3 62 -180 62 -91 0 -168 4 -179 10 -17 10 -19 22 -19 118 0 71 4 112 12
120 8 8 67 12 198 12 131 0 190 4 198 12 7 7 12 28 12 48 0 20 -5 41 -12 48
-15 15 -484 17 -510 1z"/>
<path d="M1450 1060 c-12 -7 -9 -28 22 -137 69 -249 207 -695 219 -709 7 -9
31 -14 65 -14 68 0 59 -18 159 325 42 143 92 311 111 374 47 155 45 171 -20
171 -40 0 -55 -23 -82 -125 -24 -91 -96 -373 -124 -485 -12 -49 -35 -90 -50
-90 -15 0 -36 58 -75 212 -21 79 -48 184 -61 233 -13 50 -31 122 -40 160 -9
39 -23 76 -32 83 -18 14 -71 16 -92 2z"/>
<path d="M2213 1062 c-10 -6 -13 -107 -13 -427 -1 -230 3 -422 8 -427 4 -4
127 -7 273 -6 l264 3 0 45 0 45 -199 3 c-168 2 -203 5 -218 19 -15 14 -18 33
-18 123 0 152 -10 144 202 150 l173 5 0 45 0 45 -178 5 c-143 4 -180 8 -187
20 -15 23 -13 217 3 227 6 4 100 10 207 13 l195 5 3 45 c5 70 3 70 -267 70
-130 0 -242 -4 -248 -8z"/>
<path d="M2906 1054 c-3 -9 -6 -199 -6 -423 0 -303 3 -410 12 -419 20 -20 86
-15 98 7 5 11 10 82 10 158 0 95 4 143 12 151 14 14 166 16 187 3 7 -5 50 -80
95 -167 l81 -159 53 -3 c47 -3 52 -1 52 18 0 11 -31 83 -70 160 -38 77 -70
147 -70 156 0 9 26 44 58 78 65 70 82 112 82 205 0 46 -7 76 -26 116 -50 108
-128 135 -384 135 -153 0 -179 -2 -184 -16z m419 -126 c56 -44 72 -140 34
-208 -34 -60 -61 -70 -189 -70 -61 0 -120 5 -131 10 -17 10 -19 22 -19 138 0
86 4 132 12 140 8 8 53 12 139 12 114 0 129 -2 154 -22z"/>
<path d="M4798 1059 c-17 -9 -18 -40 -18 -422 0 -308 3 -416 12 -425 14 -14
94 -16 102 -3 3 4 6 194 7 421 1 389 0 414 -17 427 -21 15 -62 17 -86 2z"/>
<path d="M5040 1060 c-18 -11 -11 -44 53 -250 24 -80 72 -239 106 -355 34
-116 67 -220 73 -232 10 -20 19 -23 69 -23 69 0 64 -6 108 145 18 61 50 169
71 240 36 117 58 195 116 394 17 62 17 64 -1 77 -21 16 -63 18 -83 5 -7 -4
-51 -155 -97 -336 -47 -187 -90 -334 -99 -343 -15 -15 -17 -15 -32 0 -9 9 -24
49 -34 89 -10 41 -42 164 -70 274 -29 110 -56 218 -61 240 -4 22 -10 47 -14
57 -10 26 -75 37 -105 18z"/>
<path d="M5801 1061 c-13 -8 -15 -73 -15 -416 -1 -223 2 -415 6 -426 7 -18 19
-19 272 -19 285 0 276 -2 276 54 0 43 -14 46 -215 46 -240 0 -230 -6 -230 146
0 144 -8 138 203 142 176 4 182 5 182 52 0 46 -13 50 -182 50 -201 0 -198 -2
-198 133 0 132 -8 127 216 127 197 0 204 2 204 56 0 63 -6 64 -268 64 -130 0
-243 -4 -251 -9z"/>
<path d="M6798 1059 c-17 -9 -18 -35 -18 -318 0 -279 2 -315 20 -372 24 -80
65 -130 132 -163 44 -22 65 -26 140 -26 74 0 96 4 136 24 61 31 115 88 144
151 22 48 23 61 26 368 2 233 0 322 -9 333 -12 15 -66 19 -86 6 -8 -5 -12 -93
-15 -312 -3 -286 -4 -308 -24 -350 -12 -25 -36 -58 -53 -75 -27 -25 -41 -30
-96 -33 -79 -5 -116 8 -154 57 -43 54 -50 116 -51 428 0 209 -3 279 -13 285
-17 11 -59 9 -79 -3z"/>
<path d="M7567 1058 c-16 -12 -17 -47 -15 -433 l3 -420 50 0 50 0 5 141 c3 99
9 146 19 158 11 13 33 16 110 16 130 0 191 18 246 75 28 29 46 59 54 89 14 59
14 188 -1 238 -15 52 -85 113 -151 133 -66 19 -345 21 -370 3z m361 -128 c46
-28 65 -79 60 -158 -4 -61 -7 -67 -46 -103 l-41 -39 -103 0 c-57 0 -110 5
-118 10 -12 7 -16 38 -18 143 -4 171 -7 167 131 167 85 0 108 -4 135 -20z"/>
<path d="M9448 1059 c-17 -9 -18 -40 -18 -419 0 -224 3 -415 6 -424 5 -14 36
-16 245 -16 l239 0 10 25 c6 16 6 34 0 50 l-10 25 -164 0 c-146 0 -166 2 -187
19 l-24 19 -3 358 c-2 265 -6 360 -15 366 -17 11 -59 9 -79 -3z"/>
<path d="M9988 1059 c-20 -11 -22 -31 -8 -91 5 -24 21 -104 35 -178 14 -74 31
-160 39 -190 8 -30 22 -98 31 -150 46 -261 38 -244 116 -248 45 -2 69 1 77 10
14 17 59 247 93 468 9 62 45 150 61 150 16 0 39 -64 54 -148 16 -96 48 -266
70 -382 8 -41 20 -80 26 -87 13 -16 134 -18 143 -2 10 15 28 95 79 351 25 122
57 277 71 343 14 65 22 127 19 137 -7 23 -49 34 -79 20 -27 -13 -29 -22 -80
-322 -73 -433 -97 -443 -161 -70 -18 107 -40 224 -48 260 -9 36 -16 77 -16 92
0 33 -24 48 -75 48 -71 0 -73 -5 -104 -182 -22 -129 -33 -186 -41 -223 -5 -22
-12 -67 -15 -100 -6 -59 -41 -155 -56 -155 -14 0 -37 53 -48 110 -17 84 -61
335 -77 435 -14 93 -27 115 -68 115 -12 0 -29 -5 -38 -11z"/>
<path d="M11188 1058 c-9 -7 -25 -44 -37 -83 -25 -83 -67 -228 -111 -380 -18
-60 -48 -163 -67 -227 -19 -64 -33 -127 -31 -140 3 -20 9 -23 48 -23 49 0 51
4 81 118 6 26 21 59 31 72 19 24 23 25 148 25 156 0 162 -4 185 -105 22 -96
36 -115 85 -115 28 0 40 5 44 18 3 10 -19 103 -50 207 -31 105 -64 219 -74
255 -44 161 -108 371 -114 377 -14 14 -121 15 -138 1z m100 -188 c48 -159 80
-304 72 -320 -11 -21 -53 -28 -132 -25 -72 3 -91 17 -85 64 7 59 75 301 88
317 21 25 42 11 57 -36z"/>
<path d="M11613 1063 c-7 -2 -13 -9 -13 -13 0 -5 53 -118 118 -252 l117 -243
5 -175 5 -175 44 -3 c28 -2 47 1 52 10 5 7 9 85 9 174 l0 161 120 247 c66 135
120 250 120 255 0 11 -25 21 -54 21 -35 0 -71 -34 -91 -86 -31 -82 -113 -250
-128 -262 -35 -29 -57 2 -142 191 -32 70 -67 134 -79 142 -20 15 -59 18 -83 8z"/>
<path d="M13346 1054 c-14 -13 -16 -65 -16 -419 0 -222 3 -410 6 -419 5 -14
37 -16 248 -16 259 0 266 1 266 50 0 47 -12 50 -192 50 -155 0 -170 2 -188 20
-19 19 -20 33 -20 375 0 340 -1 355 -19 365 -29 15 -67 12 -85 -6z"/>
<path d="M13991 1056 c-8 -9 -10 -131 -9 -432 l3 -419 268 -3 267 -2 11 23 c7
15 7 31 0 50 l-11 27 -188 0 c-244 0 -232 -7 -232 144 0 93 3 116 17 127 12
10 63 15 187 19 l171 5 0 45 0 45 -178 5 c-143 4 -180 8 -187 20 -5 8 -10 61
-10 117 0 91 2 103 19 113 12 6 93 10 195 10 96 0 181 3 190 6 19 7 22 84 4
102 -18 18 -501 17 -517 -2z"/>
<path d="M14916 1054 c-15 -14 -29 -56 -106 -319 -16 -55 -57 -191 -91 -303
-33 -112 -58 -210 -55 -218 4 -9 21 -14 51 -14 51 0 49 -3 86 118 13 44 30 79
43 88 24 16 228 20 269 5 19 -7 28 -25 46 -88 32 -109 43 -123 92 -123 25 0
42 5 45 14 7 17 9 9 -151 556 -19 63 -44 148 -55 188 -12 40 -30 82 -41 93
-24 24 -110 27 -133 3z m89 -163 c20 -39 77 -245 83 -298 5 -55 -13 -65 -120
-61 -62 2 -83 7 -91 19 -11 18 2 82 50 254 35 123 50 140 78 86z"/>
<path d="M15468 1059 c-17 -9 -18 -40 -18 -422 0 -308 3 -416 12 -425 15 -15
85 -16 94 -1 4 7 8 75 10 151 3 177 4 178 119 178 66 0 85 -3 98 -18 9 -10 46
-79 81 -154 36 -75 73 -143 81 -152 18 -18 110 -23 120 -7 3 5 -28 74 -69 153
-40 79 -77 153 -81 165 -5 19 5 34 52 82 69 69 83 105 83 217 0 128 -47 193
-165 229 -59 18 -389 21 -417 4z m422 -144 c76 -73 54 -216 -40 -255 -43 -18
-258 -10 -270 10 -5 8 -10 66 -10 129 0 157 -3 153 162 149 125 -3 127 -3 158
-33z"/>
<path d="M16237 1058 c-16 -12 -17 -47 -15 -433 l3 -420 40 0 40 0 5 312 c5
322 10 358 44 323 7 -8 73 -145 145 -305 73 -159 139 -300 147 -313 14 -21 21
-23 87 -20 l72 3 3 424 c2 457 4 441 -50 441 -57 0 -58 -3 -58 -335 0 -221 -3
-306 -12 -311 -17 -11 -53 41 -92 131 -92 216 -220 482 -238 498 -24 20 -96
23 -121 5z"/>
<path d="M8148 329 c-14 -8 -18 -23 -18 -68 0 -49 4 -61 26 -82 27 -25 28 -50
8 -141 -5 -23 -3 -28 14 -28 35 0 53 77 50 211 l-3 114 -30 2 c-16 2 -38 -2
-47 -8z"/>
</g>
</svg>
